<svg width="744.309" height="1000" viewBox="0 0 148.862 200" xml:space="preserve" xmlns="http://www.w3.org/2000/svg">
    <g style="display:inline">
        <path style="fill:#4d309c;stroke-width:.779049;stroke-linecap:round;stroke-linejoin:round;paint-order:markers fill stroke" d="M41.492 10.752h91.01l34.095 34.095v136.41a8.077 8.077 0 0 1-8.095 8.095H41.492a8.077 8.077 0 0 1-8.095-8.095V18.847a8.077 8.077 0 0 1 8.095-8.095z" transform="matrix(1.11758 0 0 1.11982 -37.324 -12.04)"/>
        <path style="fill:#332067;stroke-width:.672785;stroke-linecap:round;stroke-linejoin:round;paint-order:markers fill stroke" d="M166.597 44.847h-28.058a6.024 6.024 0 0 1-6.037-6.038V10.752Z" transform="matrix(1.11758 0 0 1.11982 -37.324 -12.04)"/>
        <path style="fill:none;stroke:#fff;stroke-width:1.43023;stroke-linecap:round;stroke-linejoin:round;stroke-dasharray:none;stroke-opacity:1;paint-order:markers fill stroke" d="M57.67 125.407h84.66M125.604 108.955h16.725M57.67 108.955h16.726M125.604 92.504h16.725M57.67 92.504h16.726M57.67 76.052h84.66" transform="matrix(1.11758 0 0 1.11982 -37.324 -3.602)"/>
        <path d="m91.706 110.569-16.781-7.796q-1.037-.46-1.037-1.382 0-.46.269-.806.269-.346.768-.576l16.78-7.834q.385-.154.692-.077.307.077.499.307.192.23.192.538.038.307-.115.576-.115.269-.5.46l-17.395 8.026v-1.228l17.396 8.025q.384.192.499.46.153.27.115.577 0 .307-.192.538-.192.23-.5.307-.306.077-.69-.115zm4.608 3.264q-.116.384-.384.576-.27.192-.615.192-.307 0-.576-.192-.269-.154-.345-.461-.116-.307 0-.691l9.254-28.685q.115-.423.384-.615t.576-.153q.346 0 .614.153.27.154.346.461.115.307 0 .691zm11.942-3.264q-.384.192-.691.115-.307-.077-.5-.307-.191-.23-.23-.538 0-.307.154-.576.153-.269.499-.46l17.395-8.026v1.228l-17.395-8.025q-.346-.192-.5-.461-.153-.269-.153-.576.039-.307.23-.538.193-.23.5-.307.307-.077.691.077l16.78 7.834q1.038.46 1.038 1.382 0 .46-.27.806-.23.346-.767.576z" style="font-weight:300;font-size:38.4px;font-family:Nunito;-inkscape-font-specification:'Nunito Light';text-align:center;text-anchor:middle;fill:#fff;stroke-width:.756;stroke-linecap:round;stroke-linejoin:round;paint-order:markers fill stroke" aria-label="&lt;/&gt;" transform="matrix(1.11758 0 0 1.11982 -37.324 -3.602)"/>
    </g>
</svg>
